<?xml version="1.0" standalone="no"?>
<!DOCTYPE svg PUBLIC "-//W3C//DTD SVG 20010904//EN"
 "http://www.w3.org/TR/2001/REC-SVG-20010904/DTD/svg10.dtd">
<svg version="1.0" xmlns="http://www.w3.org/2000/svg"
 width="760.000000pt" height="583.000000pt" viewBox="0 0 760.000000 583.000000"
 preserveAspectRatio="xMidYMid meet">

<g transform="translate(0.000000,583.000000) scale(0.100000,-0.100000)"
fill="#000000" stroke="none">
<path d="M0 2915 l0 -2915 3800 0 3800 0 0 2915 0 2915 -3800 0 -3800 0 0
-2915z m3718 2498 c3 -19 -2 -22 -39 -25 -49 -3 -71 -27 -53 -55 16 -25 49
-23 49 2 0 14 8 21 28 23 26 3 27 2 27 -42 0 -41 -3 -46 -26 -52 -66 -17 -144
26 -144 79 1 60 48 99 115 95 33 -3 41 -7 43 -25z m112 -56 c0 -46 -2 -86 -5
-89 -3 -3 -17 -3 -30 0 -24 4 -25 7 -25 81 0 43 3 81 7 84 3 4 17 7 30 7 22 0
23 -3 23 -83z m129 41 c27 -42 41 -41 41 3 0 25 4 29 26 29 l27 0 -6 -86 c-3
-48 -8 -88 -9 -89 -2 -2 -15 -1 -29 2 -17 3 -33 17 -45 39 -21 39 -34 44 -34
12 0 -33 -14 -51 -36 -46 -17 3 -19 12 -16 78 1 41 4 81 7 88 9 24 49 8 74
-30z m-459 -53 c23 -41 41 -78 41 -82 0 -16 -44 -15 -53 1 -5 9 -22 16 -38 16
-23 0 -31 -5 -36 -25 -4 -18 -13 -25 -30 -25 -29 0 -29 3 -7 102 11 52 21 79
32 81 43 12 51 6 91 -68z m708 60 c36 -6 42 -10 42 -31 0 -22 -2 -23 -47 -18
-36 4 -44 3 -33 -5 8 -6 25 -11 38 -11 18 0 23 -5 20 -22 -3 -20 -8 -23 -40
-20 -51 4 -49 -14 2 -22 30 -5 40 -11 40 -24 0 -10 -2 -21 -5 -24 -9 -8 -140
17 -140 27 0 6 6 45 13 88 13 77 14 78 40 73 15 -3 46 -8 70 -11z m-900 -97
c16 -62 18 -84 9 -90 -21 -13 -39 -9 -44 12 -5 21 -23 28 -23 10 0 -21 -44
-29 -64 -11 -18 15 -18 15 -12 -15 6 -27 4 -32 -16 -37 -12 -4 -25 -1 -29 5
-13 21 -40 148 -34 158 12 19 49 10 81 -21 l31 -30 12 45 c10 41 20 51 57 55
6 0 21 -36 32 -81z m1272 -6 c33 -25 37 -58 9 -88 -20 -21 -21 -28 -12 -59 8
-26 8 -35 -1 -35 -19 0 -56 30 -56 45 0 22 -22 30 -32 11 -10 -17 -26 -20 -45
-8 -10 6 -7 26 13 86 l27 78 36 -6 c19 -3 47 -14 61 -24z m-1517 -64 c14 -45
25 -83 24 -85 -2 -1 -14 -4 -27 -5 -20 -3 -26 6 -50 75 -25 70 -26 78 -11 87
30 18 37 10 64 -72z m-115 20 c2 -12 -5 -19 -22 -24 -14 -3 -30 -12 -37 -20
-14 -17 -11 -17 31 -3 26 9 34 9 41 -2 14 -22 11 -26 -21 -38 -16 -5 -30 -15
-30 -22 0 -7 7 -8 18 -4 9 4 29 10 45 13 22 3 27 1 27 -17 0 -11 -1 -21 -3
-21 -2 0 -31 -11 -64 -24 l-62 -24 -32 81 c-18 44 -29 82 -23 84 5 2 27 12 49
23 47 22 79 22 83 -2z m1366 -11 c15 -23 -12 -72 -39 -72 -17 0 -19 6 -16 40
1 22 5 44 8 48 8 13 35 4 47 -16z m455 -17 c28 -14 39 -25 35 -35 -7 -18 -27
-19 -55 -4 -11 6 -25 8 -32 6 -7 -2 3 -11 21 -21 34 -17 37 -23 24 -44 -7 -9
-16 -10 -41 -1 -45 16 -51 3 -7 -17 33 -16 46 -41 30 -57 -6 -6 -112 37 -127
52 -4 4 8 42 27 84 39 86 33 84 125 37z m-1993 -65 c9 -14 13 -32 9 -45 -5
-17 0 -23 31 -36 36 -15 37 -17 19 -30 -23 -17 -36 -17 -70 -2 -30 14 -43 5
-24 -18 11 -14 11 -18 -6 -30 -10 -8 -22 -14 -27 -14 -8 0 -78 133 -78 148 0
14 74 52 102 52 18 0 33 -8 44 -25z m2170 -21 c38 -18 38 -18 24 -45 -10 -18
-13 -18 -40 -4 -41 21 -59 19 -72 -11 -11 -23 -10 -29 11 -45 13 -11 29 -19
37 -19 17 0 18 -11 2 -33 -12 -16 -15 -16 -47 0 -72 37 -86 88 -40 146 24 32
72 36 125 11z m152 -94 c44 -27 58 -65 38 -107 -31 -65 -84 -77 -147 -32 -47
33 -46 93 2 138 29 26 65 27 107 1z m-2661 -56 c4 -10 -6 -26 -28 -44 -38 -32
-29 -41 11 -10 18 13 28 16 37 8 19 -15 16 -26 -14 -53 -34 -30 -16 -33 21 -4
21 17 29 19 41 9 23 -19 19 -26 -42 -69 l-56 -40 -49 66 c-26 36 -48 69 -48
73 0 11 92 79 108 80 7 0 15 -7 19 -16z m151 -46 c14 -14 16 -64 3 -73 -13 -7
-61 38 -61 57 0 29 35 39 58 16z m2660 0 c7 -7 12 -34 12 -62 l0 -50 28 27
c25 24 30 26 47 13 22 -15 25 -9 -48 -98 -43 -53 -48 -55 -72 -31 -13 12 -15
26 -11 54 7 46 -6 58 -28 24 -19 -29 -24 -30 -49 -10 -18 13 -16 17 34 79 54
67 66 75 87 54z m-2939 -129 l33 -82 -25 -25 -25 -24 -81 43 c-45 24 -81 47
-81 50 0 3 11 11 24 18 20 11 29 10 65 -8 47 -24 52 -16 27 43 -12 30 -12 36
2 50 9 9 19 16 23 16 3 0 21 -37 38 -81z m3120 -76 c-4 -52 2 -59 26 -33 21
24 38 25 54 6 10 -11 0 -26 -48 -77 -60 -62 -61 -62 -81 -44 -17 16 -19 26
-14 69 l7 51 -31 -29 c-26 -24 -34 -27 -47 -16 -24 20 -19 31 42 92 54 55 58
57 76 41 13 -13 18 -29 16 -60z m-3265 -52 c51 -51 57 -62 46 -75 -7 -9 -17
-16 -23 -16 -15 0 -117 101 -117 115 0 12 20 35 30 35 3 0 32 -27 64 -59z
m-73 -93 c34 -68 35 -79 9 -103 -19 -17 -23 -17 -105 15 -86 33 -86 33 -66 53
19 19 22 20 68 5 26 -9 50 -14 52 -12 2 2 -6 19 -18 39 -24 41 -27 65 -9 83
15 15 27 2 69 -80z m3518 2 c39 -47 45 -70 18 -70 -6 0 -23 12 -39 27 -34 33
-50 22 -18 -12 19 -21 21 -27 10 -40 -12 -14 -16 -13 -40 10 -35 34 -45 21
-14 -20 22 -29 23 -34 9 -45 -9 -8 -19 -9 -24 -4 -5 5 -26 29 -47 53 l-39 44
60 53 c33 29 65 54 71 54 6 0 30 -22 53 -50z m-3693 -105 c3 -8 -4 -26 -15
-41 -12 -15 -19 -30 -15 -33 3 -3 16 6 28 22 19 24 24 26 41 13 18 -13 18 -14
-3 -41 -33 -41 -15 -46 19 -5 27 31 30 33 45 18 15 -15 13 -20 -26 -72 -27
-35 -47 -53 -54 -48 -45 27 -125 88 -126 95 0 15 74 107 87 107 8 0 16 -7 19
-15z m3810 -49 c36 -36 43 -63 19 -72 -9 -4 -25 6 -41 25 -31 37 -47 39 -68 9
-14 -20 -14 -25 4 -56 34 -57 0 -74 -44 -21 -37 44 -35 90 5 123 43 37 83 34
125 -8z m107 -156 c36 -58 37 -64 22 -79 -15 -15 -17 -14 -35 9 l-18 24 -53
-33 c-50 -31 -54 -32 -66 -15 -19 26 -18 29 37 64 56 36 54 33 39 62 -9 16 -8
23 2 29 22 14 32 6 72 -61z m-3999 24 c9 -8 16 -20 16 -25 0 -5 18 -9 40 -9
22 0 40 -3 40 -7 -1 -19 -30 -43 -59 -49 -35 -7 -38 -12 -15 -29 14 -9 14 -16
5 -33 -11 -21 -13 -22 -44 -6 -63 33 -107 67 -107 83 0 9 11 33 25 54 20 28
32 37 55 37 16 0 36 -7 44 -16z m1983 -295 c16 -68 17 -69 57 -79 23 -6 55
-14 71 -18 l30 -8 -45 -11 c-25 -7 -56 -14 -70 -17 -23 -5 -27 -14 -44 -93
-25 -117 -30 -123 -45 -61 -36 148 -41 158 -69 158 -15 0 -47 6 -72 14 l-44
13 65 12 c36 7 70 16 75 19 5 4 15 30 22 57 34 134 34 132 43 107 5 -13 16
-54 26 -93z m-2189 -696 c0 -267 32 -484 89 -597 l25 -49 -46 -45 -45 -46 -19
24 c-11 13 -27 46 -37 72 -9 26 -20 50 -25 53 -10 6 -144 -63 -200 -103 -41
-31 -45 -32 -57 -16 -8 11 -13 48 -13 95 0 82 -23 324 -41 424 -5 33 -19 105
-30 159 l-19 100 47 48 c26 26 50 45 53 40 9 -9 36 -130 49 -217 6 -38 15 -99
21 -134 5 -35 15 -143 21 -240 7 -97 13 -177 15 -179 2 -3 144 88 144 92 -25
131 -31 196 -36 381 l-6 220 47 47 c26 26 51 46 55 43 4 -3 8 -80 8 -172z
m581 50 c7 -27 19 -63 27 -81 8 -18 14 -38 14 -45 1 -32 15 -37 64 -22 95 29
190 13 216 -34 15 -28 12 -103 -5 -154 -8 -24 -40 -96 -70 -160 -30 -64 -55
-122 -55 -128 0 -15 -111 -130 -121 -124 -4 3 -10 36 -14 73 -12 127 -70 369
-94 394 -4 5 -24 -1 -46 -12 -21 -11 -41 -17 -44 -15 -2 3 12 22 32 43 l37 38
-24 70 c-37 105 -37 107 14 159 24 25 47 45 51 45 3 0 12 -21 18 -47z m3967
-20 c10 -42 33 -85 62 -116 l26 -27 -44 -45 -44 -45 -21 20 c-12 11 -26 20
-32 20 -12 0 -48 -119 -38 -128 3 -3 45 0 93 8 166 25 149 27 161 -16 14 -51
14 -147 -1 -196 -13 -44 -109 -155 -164 -189 -29 -17 -45 -20 -84 -16 -56 7
-115 34 -148 70 l-23 25 45 48 46 48 28 -27 c28 -27 124 -67 161 -67 31 0 42
34 42 124 0 101 -6 120 -35 112 -11 -4 -63 -14 -114 -23 -129 -23 -131 -21
-92 116 17 57 30 109 30 117 0 7 11 26 25 43 19 22 24 36 19 55 -5 20 2 33 38
69 23 25 46 45 50 46 4 0 11 -11 14 -26z m-680 -30 c-22 -72 -61 -321 -75
-483 l-11 -115 -54 -54 -54 -54 -32 62 c-17 35 -61 112 -97 173 -88 150 -116
213 -116 266 0 40 5 48 61 105 34 33 65 58 69 53 4 -4 2 -10 -4 -14 -20 -12
-25 -60 -13 -111 10 -43 120 -245 149 -274 6 -6 12 16 16 59 4 38 18 123 31
189 23 117 25 120 71 167 50 50 68 60 59 31z m-3442 -73 c-8 -36 -13 -82 -12
-102 2 -33 -4 -44 -42 -83 -24 -25 -48 -45 -52 -45 -11 0 -10 108 1 148 13 43
-3 41 -55 -6 l-41 -37 13 -75 c7 -41 18 -131 25 -199 l12 -124 -46 -44 c-26
-24 -51 -42 -57 -38 -5 3 -10 30 -10 58 0 136 -44 379 -83 454 l-16 30 46 39
c25 21 49 40 53 42 4 1 17 -18 29 -43 11 -25 23 -45 26 -45 20 0 109 58 154
100 30 28 58 47 62 43 4 -4 1 -37 -7 -73z m1030 6 c9 -30 16 -61 16 -70 0 -30
27 -27 84 9 109 69 184 82 234 40 47 -39 54 -90 46 -310 -5 -140 -3 -201 5
-228 12 -37 12 -38 -31 -77 -24 -22 -46 -40 -50 -40 -4 0 -13 10 -20 23 -10
16 -12 76 -10 243 4 243 -3 283 -52 306 -34 15 -127 -5 -161 -35 l-24 -22 41
-208 42 -208 -46 -46 c-42 -42 -47 -44 -56 -27 -6 11 -29 116 -51 234 -23 118
-51 253 -62 298 l-21 84 43 44 c24 24 46 44 50 44 4 0 15 -24 23 -54z m1551 2
c8 -28 15 -56 15 -62 0 -6 4 -17 9 -25 7 -11 22 -6 72 24 130 76 193 84 244
31 42 -45 47 -83 39 -311 -5 -129 -4 -192 5 -216 11 -32 10 -35 -33 -77 -24
-25 -49 -42 -55 -38 -25 16 -31 88 -25 273 7 205 0 261 -39 288 -27 19 -61 19
-119 -1 -82 -28 -82 -21 -35 -257 l41 -207 -44 -45 c-35 -36 -47 -42 -56 -33
-6 7 -28 101 -48 208 -20 107 -48 244 -62 304 l-26 108 43 44 c24 24 47 44 51
44 4 0 14 -23 23 -52z m-1705 -34 c-12 -128 -2 -330 23 -446 l14 -66 -47 -47
c-46 -45 -49 -46 -59 -27 -6 11 -11 30 -11 41 0 40 -23 33 -81 -25 -50 -49
-62 -57 -77 -48 -24 16 -112 189 -112 222 0 22 17 45 78 104 42 41 96 85 118
96 39 20 42 24 47 74 3 29 2 56 -1 59 -4 4 -59 -17 -122 -47 -63 -29 -118 -53
-122 -54 -18 -1 -5 21 36 60 31 30 80 58 166 95 67 30 125 56 128 60 16 16 26
-6 22 -51z m1540 -15 c-11 -143 -2 -295 25 -424 l14 -70 -46 -47 c-26 -26 -50
-45 -54 -42 -4 2 -10 22 -14 44 -4 22 -10 42 -14 44 -4 3 -34 -22 -66 -54 -33
-33 -65 -60 -72 -60 -24 0 -123 190 -123 237 0 24 129 151 187 184 40 23 53
36 53 53 0 13 3 38 6 55 9 42 -1 41 -131 -18 -60 -28 -113 -47 -118 -44 -5 3
13 27 39 53 37 35 76 58 159 94 61 25 117 51 125 56 28 18 35 4 30 -61z m1392
-94 c-3 -101 -1 -165 5 -165 5 0 8 -12 5 -28 -2 -15 3 -67 12 -115 17 -99 16
-101 -45 -155 l-38 -34 -6 29 c-17 79 -19 80 -85 13 -34 -33 -65 -60 -70 -60
-29 0 -120 176 -120 233 0 27 11 43 63 94 34 33 85 73 112 89 28 15 53 33 57
39 4 5 8 34 8 62 0 61 12 61 -130 -4 -107 -50 -118 -54 -124 -44 -10 16 90 99
144 119 30 11 89 36 130 56 41 20 77 36 80 36 4 0 4 -74 2 -165z m-1839 92
c31 0 57 -3 57 -7 0 -4 -23 -29 -51 -55 -50 -47 -52 -47 -102 -42 -29 3 -64 9
-79 13 -26 6 -28 4 -28 -25 0 -94 60 -292 105 -346 21 -25 26 -28 35 -15 6 8
9 40 7 71 -5 57 -5 57 43 104 l47 47 11 -30 c12 -36 7 -98 -13 -145 -13 -31
-116 -141 -152 -160 -24 -14 -58 7 -92 57 -54 78 -87 201 -98 361 l-6 91 72
66 72 67 57 -26 c39 -18 75 -26 115 -26z m-28 -279 c-22 -24 -41 -45 -42 -47
-2 -2 -6 -2 -9 2 -9 9 57 87 75 87 10 0 1 -15 -24 -42z m-1015 -251 c0 -2 -19
-21 -42 -42 l-43 -40 40 43 c36 39 45 47 45 39z m1540 0 c0 -2 -19 -21 -42
-42 l-43 -40 40 43 c36 39 45 47 45 39z m1355 -47 c-21 -22 -41 -37 -44 -35
-2 3 13 23 34 45 21 22 41 37 44 35 2 -3 -13 -23 -34 -45z m276 -387 c35 -7
40 -13 32 -41 -5 -19 -10 -21 -49 -15 -30 4 -58 0 -90 -12 -25 -9 -48 -15 -51
-12 -11 11 10 49 33 59 27 13 30 25 10 47 -9 10 -12 27 -9 45 l6 29 44 -47
c26 -27 57 -49 74 -53z m-2326 -99 l27 -102 89 -18 c49 -10 84 -21 77 -25 -7
-3 -47 -14 -90 -24 l-76 -18 -11 -41 c-6 -22 -20 -79 -31 -125 -10 -46 -21
-85 -23 -87 -2 -2 -18 54 -36 125 l-33 128 -68 17 c-37 9 -75 16 -84 16 -9 0
-16 4 -16 9 0 9 38 19 131 36 36 7 37 7 59 93 43 164 42 159 51 137 4 -11 19
-66 34 -121z m-2196 59 c12 -10 28 -36 36 -58 12 -36 12 -41 -3 -52 -21 -17
-32 -16 -32 2 0 30 -23 65 -44 65 -45 0 -53 -21 -35 -90 2 -9 -4 -16 -17 -18
-37 -5 -61 93 -31 130 31 40 91 49 126 21z m4441 -85 c13 -16 19 -17 48 -7 40
14 46 9 31 -24 -7 -16 -23 -28 -40 -32 -34 -8 -38 -21 -9 -30 22 -7 25 -22 10
-45 -8 -12 -19 -11 -84 10 -84 28 -90 37 -61 105 22 54 71 65 105 23z m-4369
-79 c41 -78 26 -129 -40 -129 -31 0 -40 -5 -49 -25 -7 -14 -12 -28 -12 -31 0
-3 38 -3 86 1 76 7 86 6 99 -11 24 -32 17 -47 -48 -112 -63 -62 -63 -63 -74
-39 -9 19 -8 28 5 40 14 14 14 20 2 42 -9 16 -22 25 -37 25 -19 0 -29 10 -47
52 -23 52 -23 52 -4 85 l20 33 -30 -6 c-25 -5 -31 -2 -37 16 -8 26 -12 23 60
53 75 32 91 32 106 6z m4258 -58 c10 -6 10 -13 2 -29 -13 -24 -4 -33 57 -57
42 -17 54 -39 31 -62 -8 -8 -25 -5 -62 13 -52 24 -77 20 -77 -12 0 -17 -11
-18 -32 -1 -14 11 -13 19 15 84 32 73 40 80 66 64z m-74 -171 c3 -5 -1 -23
-10 -40 -18 -34 -7 -40 20 -10 28 31 77 24 89 -12 17 -49 -36 -130 -66 -100
-7 7 -4 18 7 36 23 35 11 45 -18 18 -48 -45 -107 -15 -92 46 14 56 52 91 70
62z m-4006 -140 c34 -56 38 -75 17 -83 -10 -4 -23 7 -36 29 -12 18 -26 34 -31
34 -13 0 -11 -8 8 -41 16 -26 16 -31 3 -39 -23 -15 -29 -12 -42 15 -12 27 -28
31 -58 15 -15 -8 -21 -6 -30 11 -7 11 -9 24 -5 27 15 15 121 81 132 81 6 1 25
-22 42 -49z m3931 -20 c-6 -10 -15 -22 -20 -25 -6 -3 -10 -14 -10 -23 1 -13 6
-10 23 11 37 45 73 28 42 -20 -11 -16 -13 -29 -7 -35 6 -6 17 3 32 26 23 39
32 43 48 23 8 -9 2 -27 -23 -66 -19 -29 -36 -55 -39 -58 -2 -2 -33 14 -67 36
-35 23 -67 41 -71 41 -15 0 -8 20 27 75 32 49 38 54 56 45 15 -9 17 -15 9 -30z
m-3835 -126 c43 -62 45 -68 30 -83 -15 -15 -17 -15 -29 2 -18 24 -31 22 -82
-14 -43 -30 -46 -30 -59 -12 -20 26 -20 26 30 61 47 33 54 49 33 71 -11 10 -9
15 6 27 11 8 21 14 22 14 1 0 23 -30 49 -66z m3759 -25 c28 -22 34 -56 15 -90
-8 -16 -7 -25 5 -38 15 -16 15 -19 -2 -34 -17 -16 -22 -14 -83 30 -35 25 -66
47 -68 49 -7 6 41 74 62 89 28 20 39 19 71 -6z m-3674 -90 c7 -11 10 -22 8
-23 -125 -102 -131 -106 -144 -88 -7 9 -14 20 -14 24 0 8 121 108 132 108 4 0
12 -9 18 -21z m66 -131 c-7 -54 -3 -58 31 -27 18 18 25 20 38 9 23 -19 17 -31
-46 -89 -59 -54 -60 -55 -79 -35 -15 16 -17 26 -11 62 9 48 -3 56 -34 22 -14
-15 -21 -17 -32 -9 -22 19 -16 31 44 91 55 55 58 57 76 40 16 -14 18 -25 13
-64z m3510 45 c41 -16 74 -33 74 -39 0 -15 -29 -28 -53 -25 -31 4 -49 -19 -43
-54 5 -23 2 -36 -9 -45 -20 -16 -23 -13 -70 77 -38 71 -38 73 -20 93 24 26 34
25 121 -7z m-156 -78 c10 -13 9 -19 -5 -35 -18 -20 -18 -22 25 -65 37 -37 41
-46 30 -60 -19 -23 -30 -19 -78 28 -41 40 -44 41 -57 23 -15 -20 -45 -16 -45
6 0 13 99 118 111 118 4 0 12 -7 19 -15z m-3180 -90 c40 -21 57 -53 37 -72
-13 -13 -18 -12 -40 11 -28 28 -56 33 -75 14 -30 -30 1 -74 34 -47 12 10 18 9
31 -4 15 -15 14 -19 -11 -52 l-27 -35 -28 20 c-65 45 -80 115 -35 156 29 28
72 31 114 9z m3037 -179 c27 -37 27 -38 8 -53 -11 -7 -29 -12 -40 -9 -11 3
-33 8 -49 12 l-30 7 24 -33 c23 -32 23 -33 5 -46 -10 -8 -21 -14 -24 -14 -9 1
-101 128 -101 139 0 17 50 24 86 13 42 -13 48 -6 24 28 -18 25 -18 28 -2 44
16 16 19 15 45 -16 15 -18 40 -50 54 -72z m-2823 8 c57 -40 65 -48 56 -65 -13
-23 -18 -24 -41 -3 -16 15 -20 12 -55 -35 -21 -28 -41 -51 -44 -51 -3 0 -15 6
-25 14 -18 13 -17 16 20 66 l38 52 -23 18 c-21 15 -22 20 -11 34 7 9 15 16 17
16 2 0 32 -21 68 -46z m2613 -109 c40 -31 73 -57 73 -60 0 -2 -10 -9 -21 -16
-16 -8 -27 -8 -45 2 -20 10 -27 10 -42 -5 -12 -10 -17 -25 -15 -39 3 -17 -2
-26 -20 -34 l-25 -12 -17 91 -18 91 24 18 c13 10 26 19 28 19 2 0 37 -25 78
-55z m-2458 11 c40 -21 53 -41 53 -83 0 -29 -7 -43 -31 -65 -37 -33 -64 -35
-109 -8 -60 37 -67 98 -15 146 30 27 62 30 102 10z m2269 -68 c7 -7 12 -19 12
-28 0 -8 9 -23 20 -33 26 -22 25 -49 -2 -74 -21 -19 -80 -53 -92 -53 -7 0 -76
136 -76 148 0 14 73 52 101 52 14 0 30 -5 37 -12z m-2117 -18 c14 -8 19 -21
19 -49 0 -50 7 -55 42 -26 33 28 47 30 72 12 16 -12 15 -18 -18 -90 -34 -75
-36 -77 -60 -65 -20 9 -23 14 -16 29 16 28 13 44 -5 29 -12 -10 -21 -10 -41
-1 -14 6 -23 15 -19 20 3 5 1 12 -4 15 -5 4 -12 -3 -16 -14 -7 -22 -18 -25
-45 -10 -19 10 -18 14 17 85 21 41 41 75 46 75 5 0 17 -5 28 -10z m1944 -64
c13 -9 19 -25 18 -48 -1 -29 4 -38 30 -53 l30 -18 -27 -14 c-23 -12 -29 -12
-48 2 -34 23 -51 20 -37 -6 12 -23 4 -35 -24 -41 -14 -2 -25 13 -48 66 -16 38
-27 76 -25 83 7 16 62 42 92 43 11 0 29 -6 39 -14z m-1660 -50 c42 -18 60 -52
51 -99 -12 -62 -61 -87 -124 -62 -92 37 -73 168 26 174 7 1 28 -6 47 -13z
m1499 -33 c21 -62 20 -106 -3 -127 -24 -22 -83 -31 -109 -17 -27 14 -68 131
-49 143 30 19 45 8 59 -44 11 -41 19 -54 36 -56 30 -5 35 16 17 67 -23 65 -21
71 27 80 3 0 13 -20 22 -46z m-1300 -27 c45 -19 54 -50 26 -88 -19 -26 -20
-33 -10 -59 7 -16 11 -32 8 -34 -11 -12 -51 11 -64 37 -15 28 -34 30 -34 2 0
-19 -39 -18 -46 1 -4 8 2 47 11 85 16 67 18 70 46 70 16 0 45 -6 63 -14z
m1006 -37 c0 -14 -7 -19 -24 -19 -39 0 -40 -18 -2 -25 26 -5 37 -14 47 -37 12
-29 11 -32 -17 -54 -19 -16 -42 -24 -66 -24 -21 0 -38 2 -38 4 0 2 -2 11 -6
19 -4 10 6 16 36 21 45 7 46 26 0 26 -30 0 -60 22 -60 45 0 26 37 58 76 65 46
8 54 5 54 -21z m-810 -4 c24 -13 30 -22 30 -49 0 -18 -7 -39 -15 -46 -13 -11
-13 -15 0 -41 20 -38 19 -41 -12 -37 -19 2 -32 12 -41 31 -15 32 -32 36 -32 7
0 -16 -7 -20 -30 -20 -16 0 -30 3 -30 7 0 11 21 137 25 151 6 17 70 15 105 -3z
m645 -30 c0 -34 -3 -40 -24 -43 -14 -2 -21 0 -17 7 4 5 1 19 -5 29 -17 27 -4
54 23 50 20 -3 23 -9 23 -43z m-459 15 c29 0 64 -47 64 -85 0 -53 -36 -85 -95
-85 -36 0 -51 6 -72 26 -21 21 -25 32 -20 66 8 59 49 94 95 82 8 -2 20 -4 28
-4z m369 0 c3 -5 -4 -46 -16 -90 -21 -80 -21 -80 -54 -80 -29 0 -35 4 -45 35
-15 45 -24 44 -36 -2 -8 -33 -13 -38 -40 -41 -30 -3 -33 0 -50 45 -9 26 -23
63 -31 82 -11 28 -11 36 -1 43 25 16 40 7 55 -32 9 -22 19 -40 23 -40 4 0 12
18 19 40 10 35 16 40 41 40 25 0 31 -5 41 -40 15 -49 26 -51 35 -5 8 43 44 70
59 45z"/>
<path d="M4520 5262 c0 -14 11 -21 26 -15 8 3 11 9 8 14 -7 11 -34 12 -34 1z"/>
<path d="M2700 5125 c0 -8 7 -15 15 -15 8 0 15 7 15 15 0 8 -7 15 -15 15 -8 0
-15 -7 -15 -15z"/>
<path d="M5027 5002 c-22 -24 -21 -49 1 -61 39 -21 81 36 50 67 -17 17 -32 15
-51 -6z"/>
<path d="M1775 4270 c-8 -13 4 -32 16 -25 12 8 12 35 0 35 -6 0 -13 -4 -16
-10z"/>
<path d="M2305 3130 c-3 -5 6 -48 20 -96 13 -48 28 -109 31 -136 4 -26 10 -48
14 -48 12 0 49 94 60 150 14 74 4 109 -36 126 -39 16 -80 18 -89 4z"/>
<path d="M2748 2956 c-47 -25 -58 -36 -58 -56 0 -29 65 -170 78 -170 4 0 18
20 30 45 17 35 22 64 22 125 0 43 -3 81 -7 83 -5 2 -34 -10 -65 -27z"/>
<path d="M4288 2956 c-69 -37 -72 -50 -27 -139 47 -95 52 -98 81 -35 22 47 25
63 20 126 -2 40 -7 74 -11 76 -3 1 -32 -11 -63 -28z"/>
<path d="M5673 2949 c-31 -18 -53 -38 -53 -48 0 -21 64 -156 79 -165 14 -9 61
85 61 122 0 57 -13 122 -24 122 -6 0 -35 -14 -63 -31z"/>
<path d="M6005 2080 c-8 -13 4 -32 16 -25 12 8 12 35 0 35 -6 0 -13 -4 -16
-10z"/>
<path d="M1650 1980 c0 -11 7 -20 15 -20 8 0 15 9 15 20 0 11 -7 20 -15 20 -8
0 -15 -9 -15 -20z"/>
<path d="M5672 1443 c5 -26 38 -29 38 -4 0 15 -6 21 -21 21 -14 0 -19 -5 -17
-17z"/>
<path d="M2598 824 c-24 -53 33 -83 61 -32 13 22 13 29 2 42 -20 24 -50 19
-63 -10z"/>
<path d="M4870 770 c0 -5 4 -10 9 -10 6 0 13 5 16 10 3 6 -1 10 -9 10 -9 0
-16 -4 -16 -10z"/>
<path d="M4907 723 c-12 -11 -8 -23 8 -23 8 0 15 7 15 15 0 16 -12 20 -23 8z"/>
<path d="M4695 691 c-3 -5 -1 -12 5 -16 12 -7 30 2 30 16 0 12 -27 12 -35 0z"/>
<path d="M3042 638 c-20 -20 -15 -66 8 -73 28 -9 50 11 50 45 0 36 -34 52 -58
28z"/>
<path d="M3257 584 c-9 -10 2 -24 19 -24 8 0 14 7 14 15 0 15 -21 21 -33 9z"/>
<path d="M3443 538 c2 -7 10 -13 17 -13 7 0 15 6 18 13 2 7 -5 12 -18 12 -13
0 -20 -5 -17 -12z"/>
<path d="M3624 506 c-7 -31 0 -54 21 -62 25 -10 46 16 43 50 -2 25 -8 32 -30
34 -22 3 -29 -2 -34 -22z"/>
</g>
</svg>
